# xmcd
#
# Track frame offsets:
#	150
#	15723
#	33602
#	48971
#	62478
#	80478
#	91652
#	103231
#	118145
#	135518
#	148708
#	159387
#	179484
#	195031
#	215914
#	232389
#
# Disc length: 3316 seconds
#
# Revision: 1
# Processed by: cddbd v1.4PL0 Copyright (c) Steve Scherf et al.
# Submitted via: audiograbber 1.80
#
DISCID=e00cf210
DTITLE=Adam Brand - Adam Brand
DYEAR=1900
DGENRE=
TTITLE0=Uncle Pete
TTITLE1=Never Live Without You
TTITLE2=Grandpa's Piano
TTITLE3=My Minds Made Up
TTITLE4=Come From The Heart
TTITLE5=Feelin' Single Seein' Double
TTITLE6=Losing Streak
TTITLE7=Last Man Standing
TTITLE8=Size Two Boots
TTITLE9=Dirt Track Cowboys
TTITLE10=My Mama Told Me (Not To Play The Guitar
TTITLE11=Here And There
TTITLE12=King Of The Road
TTITLE13=Words Cannot Say
TTITLE14=Love Away The Night
TTITLE15=Gospel Medley: Daddy Sang Bass
EXTD=
EXTT0=
EXTT1=
EXTT2=
EXTT3=
EXTT4=
EXTT5=
EXTT6=
EXTT7=
EXTT8=
EXTT9=
EXTT10=
EXTT11=
EXTT12=
EXTT13=
EXTT14=
EXTT15=
PLAYORDER=
